<svg id="Layer_1" data-name="Layer 1" xmlns="http://www.w3.org/2000/svg" viewBox="0 0 600 600"><defs><style>.cls-1{fill:#00af33;}</style></defs><title>NotieLogo</title><path class="cls-1" d="M0,0V600H600V0ZM87,294.66c3.8-3.8,13.93-17.73,21.53-17.73a30.23,30.23,0,0,1,13.93,3.8l-3.8,10.13c-13.93,0-20.27,24.07-29.13,26.6s-17.73,3.8-31.67-3.8C80.63,311.13,83.16,298.46,87,294.66Zm372.41-64.6-29.13,11.4s-19,5.07-17.73-13.93a102.8,102.8,0,0,0,6.33-17.73s-16.47,3.8-20.27,7.6-11.4,22.8-16.47,39.27c8.87,7.6,38,24.07,38,24.07s10.13,6.33,5.07,19-46.87,46.87-46.87,46.87S370.71,358,339,360.53c2.53-10.13,8.87-27.87,8.87-27.87s8.87,0,19-6.33S391,302.26,391,302.26s11.4-3.8-19-6.33c-16.47-3.8-45.6-12.67-45.6-12.67s-49.4,26.6-98.8,41.8c-8.87,24.07-41.8,64.6-102.6,95-2.53,8.87-27.87,64.6-27.87,64.6S85.7,502.4,52.76,510l12.67-32.93s12.67-2.53,16.47-19c11.4-25.33,21.53-48.14,21.53-48.14s20.27-36.73,27.87-45.6c-3.8-10.13-6.33-16.47-8.87-27.87s2.53-45.6,8.87-53.2,27.87-27.87,32.93-32.93,50.67-35.47,98.8-84.87,68.4-50.67,68.4-50.67,49.4-17.73,91.2,13.93c0,8.87-7.6,74.74,63.34,88.67C470.78,225,459.38,230.06,459.38,230.06Zm96.27-60.8c-38,30.4-64.6,0-64.6,0s20.27-3.8,24.07-10.13c21.11-35.27-13.39-39.55-16.47-38,0,0-40.53,3.8-24.07,41.8s67.14,25.33,67.14,25.33S516.38,221.19,472,206s-41.8-69.67-41.8-69.67S448,73,498.65,81.85s60.8,44.33,60.8,44.33S563.25,159.12,555.65,169.25Z"/></svg>